<svg id="svg" version="1.1" xmlns="http://www.w3.org/2000/svg" xmlns:xlink="http://www.w3.org/1999/xlink" width="400" height="400" viewBox="0, 0, 400, 400">
    <g id="svgg">
        <!-- geometric Q: bold ring -->
        <circle id="ring" cx="188" cy="188" r="86" fill="none" stroke="#ffffff" stroke-width="44"/>
        <!-- diagonal tail flying out at 45 degrees -->
        <line id="tail" x1="218" y1="218" x2="295" y2="295" stroke="#ffffff" stroke-width="44" stroke-linecap="round"/>
        <!-- serif y signature continuing the diagonal into the corner -->
        <path id="signature" d="M348.00 307.91Q348.00 310.65 345.54 314.60L332.20 336.36Q329.28 341.13 327.29 343.40Q325.30 345.66 323.23 346.83Q321.16 348.00 318.86 348.00Q317.31 348.00 316.38 347.89Q315.45 347.79 313.96 347.42L315.24 340.07H317.06L317.67 343.90Q318.43 344.60 319.80 344.60Q321.62 344.60 323.78 342.50Q325.94 340.40 329.31 334.72L322.81 308.74L320.95 308.01L321.29 306.00H330.49L335.11 325.42L340.62 316.30Q341.44 314.97 342.00 313.37Q342.56 311.77 342.56 310.83Q342.56 310.04 342.30 309.54Q342.04 309.04 341.62 308.70Q341.19 308.37 339.82 307.98L340.19 306.00H347.21Q348.00 306.70 348.00 307.91Z" stroke="none" fill="#ffffff"></path>
    </g>
</svg>
